# xmcd CD database file
#
# Track frame offsets:
#	183
#	8643
#	25458
#	41808
#	58908
#	73758
#	83658
#	94308
#	105933
#	122460
#	134918
#	144933
#
# Disc length: 2153 seconds
#
# Revision: 0
# Processed by: cddbd v1.5.1PL0 Copyright (c) Steve Scherf et al.
# Submitted via: CDex 1.51
#
DISCID=a408670c
DTITLE=Sparkling Grain - High Fields And Blue Grass
DYEAR=1992
DGENRE=Country
TTITLE0=Please Be My Love
TTITLE1=Those Memories Of You
TTITLE2=Washington County
TTITLE3=Crying My Heart Out Over You
TTITLE4=On My Mind
TTITLE5=Lonesome Road
TTITLE6=Uncle Pen
TTITLE7=Angeline The Baker
TTITLE8=Can't You Hear Me Calling
TTITLE9=Lost River
TTITLE10=Daybreak In Dixie
TTITLE11=We Never Touch At All
EXTD=YEAR: 1992
EXTT0=
EXTT1=
EXTT2=
EXTT3=
EXTT4=
EXTT5=
EXTT6=
EXTT7=
EXTT8=
EXTT9=
EXTT10=
EXTT11=
PLAYORDER=
